<?xml version="1.0" encoding="UTF-8" standalone="no"?>
<!-- Created with Inkscape (http://www.inkscape.org/) -->

<svg
   xmlns:dc="http://purl.org/dc/elements/1.1/"
   xmlns:cc="http://creativecommons.org/ns#"
   xmlns:rdf="http://www.w3.org/1999/02/22-rdf-syntax-ns#"
   xmlns:svg="http://www.w3.org/2000/svg"
   xmlns="http://www.w3.org/2000/svg"
   xmlns:sodipodi="http://sodipodi.sourceforge.net/DTD/sodipodi-0.dtd"
   xmlns:inkscape="http://www.inkscape.org/namespaces/inkscape"
   width="8mm"
   height="7mm"
   viewBox="0 0 28.346445 24.803141"
   id="svg4298"
   version="1.1"
   inkscape:version="0.91 r13725"
   inkscape:export-filename="/home/nanu/path6537-6.png"
   inkscape:export-xdpi="600"
   inkscape:export-ydpi="600"
   sodipodi:docname="drawing.svg">
  <defs
     id="defs4300" />
  <sodipodi:namedview
     id="base"
     pagecolor="#ffffff"
     bordercolor="#666666"
     borderopacity="1.0"
     inkscape:pageopacity="0.0"
     inkscape:pageshadow="2"
     inkscape:zoom="28.524869"
     inkscape:cx="22.375421"
     inkscape:cy="7.8261879"
     inkscape:document-units="px"
     inkscape:current-layer="g6714"
     showgrid="false"
     inkscape:window-width="1847"
     inkscape:window-height="1053"
     inkscape:window-x="1753"
     inkscape:window-y="27"
     inkscape:window-maximized="1" />
  <metadata
     id="metadata4303">
    <rdf:RDF>
      <cc:Work
         rdf:about="">
        <dc:format>image/svg+xml</dc:format>
        <dc:type
           rdf:resource="http://purl.org/dc/dcmitype/StillImage" />
        <dc:title></dc:title>
      </cc:Work>
    </rdf:RDF>
  </metadata>
  <g
     inkscape:label="Layer 1"
     inkscape:groupmode="layer"
     id="layer1"
     transform="translate(0,-1027.5594)">
    <g
       id="g6714"
       transform="matrix(0.13404349,0,0,-0.13887405,62.947181,58.977996)">
      <path
         sodipodi:nodetypes="ccccccccccccc"
         inkscape:connector-curvature="0"
         id="path6625"
         d="m -275.09653,-7128.6178 -8.2087,-14.9946 -83.63822,-0.3075 -76.30553,0.5315 -7.66327,13.0369 -9.17472,13.9577 39.76019,67.0913 40.23579,68.9181 15.937,-0.06 17.67219,-0.2273 36.62269,-63.5736 41.31103,-71.684 z"
         inkscape:transform-center-y="-77.852952"
         inkscape:transform-center-x="-11.199052"
         style="fill:#ffffff;fill-opacity:1;stroke:#000000;stroke-width:12.82709789;stroke-linecap:round;stroke-linejoin:round;stroke-miterlimit:4;stroke-dasharray:none;stroke-opacity:1" />
      <path
         style="fill:none;stroke:#000000;stroke-width:1.70078731;stroke-linecap:butt;stroke-linejoin:miter;stroke-miterlimit:4;stroke-dasharray:none;stroke-opacity:1"
         d="m -422.76085,-7128.7517 123.32306,-0.5023 9.54435,16.8281 -103.98318,-0.2511 32.1494,55.7591 22.8562,-38.6798 19.33987,0 -51.48929,89.9179 -62.28943,-106.4949 z"
         id="path3425-5-3"
         inkscape:connector-curvature="0" />
      <path
         inkscape:connector-curvature="0"
         id="path3409-1-5"
         d="m -422.76085,-7128.7517 123.32306,-0.5023 9.54435,16.8281 -103.98318,-0.2511 32.1494,55.7591 22.8562,-38.6798 19.33987,0 -51.48929,89.9179 -62.28943,-106.4949 z"
         style="fill:none;stroke:#000000;stroke-width:3.8955307;stroke-linecap:round;stroke-linejoin:round;stroke-miterlimit:4;stroke-dasharray:none;stroke-opacity:1" />
      <path
         sodipodi:nodetypes="ccc"
         inkscape:connector-curvature="0"
         id="path3411-3-1"
         d="m -361.85398,-7056.7566 -9.54435,15.2341 -51.49534,-87.2137"
         style="fill:none;stroke:#000000;stroke-width:4.28508377;stroke-linecap:butt;stroke-linejoin:round;stroke-miterlimit:4;stroke-dasharray:none;stroke-opacity:1" />
      <path
         inkscape:connector-curvature="0"
         id="path6469-78"
         d="m -383.82444,-7096.1997 84.81851,0.906"
         style="fill:none;fill-rule:evenodd;stroke:#000000;stroke-width:1.69077206;stroke-linecap:round;stroke-linejoin:round;stroke-miterlimit:4;stroke-dasharray:none;stroke-opacity:1" />
      <path
         inkscape:connector-curvature="0"
         id="path6473-9"
         d="m -351.1406,-7004.9474 62.0313,-107.2006"
         style="fill:none;fill-rule:evenodd;stroke:#000000;stroke-width:1.70078731;stroke-linecap:round;stroke-linejoin:round;stroke-miterlimit:4;stroke-dasharray:none;stroke-opacity:1" />
      <path
         inkscape:connector-curvature="0"
         id="path6479-4"
         d="m -370.61941,-7004.7009 19.58345,0"
         style="fill:none;fill-rule:evenodd;stroke:#000000;stroke-width:1.35706711;stroke-linecap:round;stroke-linejoin:round;stroke-miterlimit:4;stroke-dasharray:none;stroke-opacity:1" />
      <path
         inkscape:connector-curvature="0"
         id="path6535-1"
         d="m -392.11525,-7111.5763 c 0.0319,0.08 1.9006,3.3407 4.15263,7.2451 l 4.09459,7.0988 4.39541,0.1199 c 2.41747,0.066 15.49734,0.2131 29.06637,0.3271 13.56902,0.1139 30.55634,0.2934 37.74959,0.3989 10.37239,0.1521 13.12555,0.1404 13.30538,-0.057 0.3384,-0.3709 8.72909,-14.9448 8.64616,-15.0177 -0.15567,-0.1367 -101.46431,-0.252 -101.41013,-0.1154 z"
         style="fill:#000000;fill-opacity:1;stroke:#000000;stroke-width:0.34329659;stroke-linecap:round;stroke-linejoin:round;stroke-miterlimit:4;stroke-dasharray:none;stroke-opacity:1" />
      <path
         inkscape:connector-curvature="0"
         id="path6537-6"
         d="m -344.12427,-7050.7036 c -13.82651,24.1483 -25.30995,44.1982 -25.51875,44.5553 l -0.37965,0.6492 9.05909,0 9.05909,0 25.69192,-44.3957 c 14.13055,-24.4176 25.68194,-44.4059 25.66977,-44.4184 -0.0122,-0.013 -4.16669,-0.083 -9.23226,-0.1575 l -9.21012,-0.1348 -25.13909,43.906 z"
         style="fill:#000000;fill-opacity:1;stroke:#000000;stroke-width:0.34329659;stroke-linecap:round;stroke-linejoin:round;stroke-miterlimit:4;stroke-dasharray:none;stroke-opacity:1" />
    </g>
  </g>
</svg>
